<?xml version="1.0" encoding="UTF-8"?>
<svg id="Calque_4" data-name="Calque 4" xmlns="http://www.w3.org/2000/svg" viewBox="0 0 157.14 158.01">
  <defs>
    <style>
      .cls-1 {
        fill: #386f9c;
      }

      .cls-1, .cls-2 {
        stroke-width: 0px;
      }

      .cls-2 {
        fill: #e5dfca;
      }
    </style>
  </defs>
  <path class="cls-1" d="M32.16,43.39s13.21,31.4,15.04,35.69c1.84,4.29,14.86,32.22,15.2,34.41.34,2.19,6.03,20.57,8.65,22.46,2.61,1.89,10.17-.17,10.79-.34s40.54-17.81,41.24-18.49-12.77-37.23-13.81-40.04c-1.04-2.81-21.58-45.99-22.82-48-1.24-2.01-3.86-7.99-5.35-7.81-1.49.18-28.44,11.19-31.26,12.33-2,.81-17.69,9.79-17.69,9.79Z"/>
  <path class="cls-2" d="M39.6,51.9s27.52-12.52,27.97-12.9c.45-.38,16.75-5.58,16.75-5.58,0,0,12.93,28.03,15.32,33.86,2.38,5.83,17.06,38.87,15.63,39.62s-25.49,10.91-29.4,12.38c-3.91,1.47-15.95,4.48-17.06,4-1.11-.48-19.9-51.13-19.9-51.13l-9.31-20.26Z"/>
  <path class="cls-2" d="M93.9,118.48s-3.44,2.13-3.06,3.73c.38,1.6,3,4.14,3.25,4.15s4.05-1.01,4.6-1.8,2.12-2.35.57-4.1c-1.55-1.75-5.36-1.98-5.36-1.98Z"/>
</svg>